<svg width="30" height="30" viewBox="0 0 30 30" fill="none" xmlns="http://www.w3.org/2000/svg">
<path d="M24.7378 18.6624C22.1628 21.2249 18.4753 22.0124 15.2378 20.9999L9.35031 26.8749C8.92531 27.3124 8.0878 27.5749 7.4878 27.4874L4.7628 27.1124C3.8628 26.9874 3.0253 26.1374 2.8878 25.2374L2.5128 22.5124C2.4253 21.9124 2.7128 21.0749 3.1253 20.6499L9.0003 14.7749C8.0003 11.5249 8.77531 7.8374 11.3503 5.2749C15.0378 1.5874 21.0253 1.5874 24.7253 5.2749C28.4253 8.9624 28.4253 14.9749 24.7378 18.6624Z" stroke="#5E797A" stroke-width="1.5" stroke-miterlimit="10" stroke-linecap="round" stroke-linejoin="round"/>
<path d="M8.6123 21.8625L11.4873 24.7376" stroke="#5E797A" stroke-width="1.5" stroke-miterlimit="10" stroke-linecap="round" stroke-linejoin="round"/>
<path d="M18.125 13.75C19.1605 13.75 20 12.9105 20 11.875C20 10.8395 19.1605 10 18.125 10C17.0895 10 16.25 10.8395 16.25 11.875C16.25 12.9105 17.0895 13.75 18.125 13.75Z" stroke="#5E797A" stroke-width="1.5" stroke-linecap="round" stroke-linejoin="round"/>
</svg>
