<svg width="86" height="85" viewBox="0 0 86 85" fill="none" xmlns="http://www.w3.org/2000/svg">
<circle cx="43" cy="42.5" r="42.5" fill="#42C9F0"/>
<path d="M50.2169 29.2689C50.2169 31.2576 48.5971 32.8774 46.6084 32.8774H40.9952C40.0009 32.8774 39.1028 32.4764 38.4452 31.8189C37.7877 31.1613 37.3867 30.2632 37.3867 29.2689C37.3867 27.2802 39.0065 25.6604 40.9952 25.6604H46.6084C47.6028 25.6604 48.5009 26.0613 49.1584 26.7189C49.816 27.3764 50.2169 28.2746 50.2169 29.2689Z" fill="white"/>
<path d="M54.7556 30.5198C54.3868 30.2151 53.9698 29.9746 53.5207 29.7981C53.0556 29.6217 52.5905 29.9906 52.4943 30.4717C51.949 33.2142 49.5273 35.283 46.6085 35.283H40.9953C39.3915 35.283 37.8839 34.6576 36.7453 33.5189C35.9113 32.6849 35.3339 31.6264 35.1094 30.4878C35.0132 30.0066 34.5321 29.6217 34.067 29.8142C32.2066 30.568 30.9717 32.2679 30.9717 35.684V51.3208C30.9717 56.1321 33.8424 57.7359 37.3868 57.7359H50.217C53.7613 57.7359 56.6321 56.1321 56.6321 51.3208V35.684C56.6321 33.0698 55.9104 31.4661 54.7556 30.5198ZM37.3868 42.0991H43.8019C44.4594 42.0991 45.0047 42.6444 45.0047 43.3019C45.0047 43.9595 44.4594 44.5047 43.8019 44.5047H37.3868C36.7292 44.5047 36.1839 43.9595 36.1839 43.3019C36.1839 42.6444 36.7292 42.0991 37.3868 42.0991ZM50.217 50.9198H37.3868C36.7292 50.9198 36.1839 50.3746 36.1839 49.717C36.1839 49.0595 36.7292 48.5142 37.3868 48.5142H50.217C50.8745 48.5142 51.4198 49.0595 51.4198 49.717C51.4198 50.3746 50.8745 50.9198 50.217 50.9198Z" fill="white"/>
</svg>
