<svg width="86" height="85" viewBox="0 0 86 85" fill="none" xmlns="http://www.w3.org/2000/svg">
<circle cx="43" cy="42.5" r="42.5" fill="#FE7F51"/>
<path d="M56.6321 35.684V51.3208C56.6321 56.1321 53.7613 57.7359 50.217 57.7359H37.3868C33.8424 57.7359 30.9717 56.1321 30.9717 51.3208V35.684C30.9717 30.4718 33.8424 29.2689 37.3868 29.2689C37.3868 30.2633 37.7877 31.1614 38.4452 31.8189C39.1028 32.4765 40.0009 32.8774 40.9953 32.8774H46.6085C48.5972 32.8774 50.217 31.2576 50.217 29.2689C53.7613 29.2689 56.6321 30.4718 56.6321 35.684Z" stroke="white" stroke-width="1.5" stroke-linecap="round" stroke-linejoin="round"/>
<path d="M50.2169 29.2689C50.2169 31.2576 48.5971 32.8774 46.6084 32.8774H40.9952C40.0009 32.8774 39.1027 32.4764 38.4452 31.8189C37.7876 31.1613 37.3867 30.2632 37.3867 29.2689C37.3867 27.2802 39.0065 25.6604 40.9952 25.6604H46.6084C47.6028 25.6604 48.5009 26.0613 49.1585 26.7189C49.816 27.3764 50.2169 28.2746 50.2169 29.2689Z" stroke="white" stroke-width="1.5" stroke-linecap="round" stroke-linejoin="round"/>
<path d="M37.3867 43.3019H43.8018" stroke="white" stroke-width="1.5" stroke-linecap="round" stroke-linejoin="round"/>
<path d="M37.3867 49.717H50.2169" stroke="white" stroke-width="1.5" stroke-linecap="round" stroke-linejoin="round"/>
</svg>
