<svg width="86" height="85" viewBox="0 0 86 85" fill="none" xmlns="http://www.w3.org/2000/svg">
<circle cx="43" cy="42.5" r="42.5" fill="#00D0C0"/>
<path d="M55.0625 29.658C55.0625 29.6425 55.0625 29.6271 55.0317 29.6117C54.6925 29.18 54.2454 28.9488 53.7213 28.9488C52.9042 28.9488 51.9175 29.4884 50.8538 30.6292C49.5896 31.9859 47.6471 31.878 46.5371 30.398L44.98 28.3321C44.3633 27.4996 43.5463 27.0834 42.7292 27.0834C41.9121 27.0834 41.095 27.4996 40.4783 28.3321L38.9058 30.4134C37.8113 31.878 35.8842 31.9859 34.62 30.6446L34.6046 30.6292C32.8625 28.7638 31.3054 28.4863 30.4267 29.6117C30.3958 29.6271 30.3958 29.6425 30.3958 29.658C29.8408 30.845 29.625 32.51 29.625 34.8534V50.1467C29.625 52.49 29.8408 54.155 30.3958 55.3421C30.3958 55.3575 30.4112 55.3884 30.4267 55.4038C31.3208 56.5138 32.8625 56.2363 34.6046 54.3709L34.62 54.3555C35.8842 53.0142 37.8113 53.1221 38.9058 54.5867L40.4783 56.668C41.095 57.5005 41.9121 57.9167 42.7292 57.9167C43.5463 57.9167 44.3633 57.5005 44.98 56.668L46.5371 54.6021C47.6471 53.1221 49.5896 53.0142 50.8538 54.3709C51.9175 55.5117 52.9042 56.0513 53.7213 56.0513C54.2454 56.0513 54.6925 55.8355 55.0317 55.4038C55.0471 55.3884 55.0625 55.3575 55.0625 55.3421C55.6175 54.155 55.8333 52.49 55.8333 50.1467V34.8534C55.8333 32.51 55.6175 30.845 55.0625 29.658ZM46.5833 46.3542H37.3333C36.7013 46.3542 36.1771 45.83 36.1771 45.198C36.1771 44.5659 36.7013 44.0417 37.3333 44.0417H46.5833C47.2154 44.0417 47.7396 44.5659 47.7396 45.198C47.7396 45.83 47.2154 46.3542 46.5833 46.3542ZM49.6667 40.9584H37.3333C36.7013 40.9584 36.1771 40.4342 36.1771 39.8021C36.1771 39.17 36.7013 38.6459 37.3333 38.6459H49.6667C50.2988 38.6459 50.8229 39.17 50.8229 39.8021C50.8229 40.4342 50.2988 40.9584 49.6667 40.9584Z" fill="white"/>
</svg>
