<svg width="86" height="85" viewBox="0 0 86 85" fill="none" xmlns="http://www.w3.org/2000/svg">
<circle cx="43" cy="42.5" r="42.5" fill="#3F52D8"/>
<path d="M43.8334 31.1333C43.9667 31.1333 44.1 31.1333 44.25 31.15V26.2167C44.25 25.5333 43.6834 24.9667 43 24.9667C42.3167 24.9667 41.75 25.5333 41.75 26.2167V31.15C41.8834 31.1333 42.0167 31.1333 42.1667 31.1333C34.4834 31.5167 28.3667 37.85 28.3667 45.6333V48.8667C28.3667 50.7 29.8667 52.2 31.7 52.2H54.3C56.1334 52.2 57.6334 50.7 57.6334 48.8667V45.6333C57.6334 37.85 51.5167 31.5167 43.8334 31.1333Z" fill="white"/>
<path d="M47.55 53.85C48.1 53.85 48.5 54.3666 48.3667 54.9C47.7333 57.2833 45.5667 59.0333 43 59.0333C40.4333 59.0333 38.2667 57.2833 37.6333 54.9C37.5 54.3666 37.9 53.85 38.45 53.85H47.55Z" fill="white"/>
</svg>
