<svg width="26" height="26" viewBox="0 0 26 26" fill="none" xmlns="http://www.w3.org/2000/svg">
<path d="M25.8111 24.8992L21.3456 20.4337C23.3017 18.2618 24.504 15.3981 24.504 12.2519C24.5039 5.49628 19.0077 0 12.252 0C5.49628 0 0 5.49628 0 12.252C0 19.0077 5.49628 24.504 12.252 24.504C15.3982 24.504 18.2618 23.3017 20.4338 21.3456L24.8992 25.8111C25.0252 25.937 25.1902 26 25.3552 26C25.5202 26 25.6851 25.937 25.8111 25.8111C26.063 25.5591 26.063 25.1511 25.8111 24.8992ZM12.252 23.2143C6.20788 23.2143 1.28972 18.2967 1.28972 12.252C1.28972 6.20728 6.20788 1.28966 12.252 1.28966C18.2961 1.28966 23.2143 6.20722 23.2143 12.252C23.2143 18.2968 18.2961 23.2143 12.252 23.2143Z" fill="#5E797A"/>
</svg>
